# xmcd
#
# Track frame offsets:
#	150
#	10926
#	18222
#	39657
#	57456
#	69895
#	82798
#	99113
#	109122
#	122469
#	135877
#	148520
#
# Disc length: 2224 seconds
#
# Revision: 1
# Processed by: cddbd v1.5.1PL2 Copyright (c) Steve Scherf et al.
# Submitted via: audiograbber 1.80
#
DISCID=8608ae0c
DTITLE=Cop - Bic
DYEAR=1900
DGENRE=
TTITLE0=Mavej vsem/
TTITLE1=Reka
TTITLE2=Bic
TTITLE3=Tajny prani
TTITLE4=Co dal
TTITLE5=Nad ranem
TTITLE6=Kdo
TTITLE7=Mary Jane
TTITLE8=Jednou
TTITLE9=Irish (vyliz)
TTITLE10=Derniera
TTITLE11=Klic ke vzpominkam
EXTD=
EXTT0=
EXTT1=
EXTT2=
EXTT3=
EXTT4=
EXTT5=
EXTT6=
EXTT7=
EXTT8=
EXTT9=
EXTT10=
EXTT11=
PLAYORDER=
